<?xml version="1.0" encoding="UTF-8"?>
<svg xmlns="http://www.w3.org/2000/svg" version="1.1">
  <path id="myLight" d="M12 18c-3.309 0-6-2.691-6-6s2.691-6 6-6 6 2.691 6 6-2.691 6-6 6zm0-10c-2.206 0-4 1.794-4 4s1.794 4 4 4 4-1.794 4-4-1.794-4-4-4zm0-4a1 1 0 0 1-1-1V1a1 1 0 0 1 2 0v2a1 1 0 0 1-1 1zm0 20a1 1 0 0 1-1-1v-2a1 1 0 1 1 2 0v2a1 1 0 0 1-1 1zM5.64 6.64a.997.997 0 0 1-.707-.293l-1.42-1.42a.999.999 0 1 1 1.414-1.414l1.42 1.42A.999.999 0 0 1 5.64 6.64zm14.139 14.139a.997.997 0 0 1-.707-.293l-1.42-1.42a.999.999 0 1 1 1.414-1.414l1.42 1.42a.999.999 0 0 1-.707 1.707zM3 13H1a1 1 0 1 1 0-2h2a1 1 0 0 1 0 2zm20 0h-2a1 1 0 1 1 0-2h2a1 1 0 1 1 0 2zM4.22 20.779a.999.999 0 0 1-.707-1.707l1.42-1.42a.999.999 0 1 1 1.414 1.414l-1.42 1.42a.993.993 0 0 1-.707.293zM18.359 6.64a.999.999 0 0 1-.707-1.707l1.42-1.42a.999.999 0 1 1 1.414 1.414l-1.42 1.42a.997.997 0 0 1-.707.293z"/>
  <path id="myDark" d="M12.048 21.963c-.308 0-.618-.015-.93-.043-2.66-.246-5.064-1.513-6.771-3.567s-2.512-4.651-2.266-7.311a10.004 10.004 0 0 1 9.038-9.038 1 1 0 0 1 .896 1.589 6.008 6.008 0 0 0 1.258 8.392c2.078 1.536 5.055 1.536 7.133 0a1 1 0 0 1 1.591.896 9.951 9.951 0 0 1-9.949 9.082zM9.315 4.438a8.006 8.006 0 0 0-5.244 6.787 7.954 7.954 0 0 0 1.813 5.849 7.95 7.95 0 0 0 5.417 2.854 7.95 7.95 0 0 0 8.266-5.243 8.01 8.01 0 0 1-2.729.476 7.946 7.946 0 0 1-4.755-1.565C9.174 11.443 8.145 7.68 9.315 4.438z"/>
  <path id="myFacebook" fill-rule="evenodd" d="M20 1C21.6569 1 23 2.34315 23 4V20C23 21.6569 21.6569 23 20 23H4C2.34315 23 1 21.6569 1 20V4C1 2.34315 2.34315 1 4 1H20ZM20 3C20.5523 3 21 3.44772 21 4V20C21 20.5523 20.5523 21 20 21H15V13.9999H17.0762C17.5066 13.9999 17.8887 13.7245 18.0249 13.3161L18.4679 11.9871C18.6298 11.5014 18.2683 10.9999 17.7564 10.9999H15V8.99992C15 8.49992 15.5 7.99992 16 7.99992H18C18.5523 7.99992 19 7.5522 19 6.99992V6.31393C19 5.99091 18.7937 5.7013 18.4813 5.61887C17.1705 5.27295 16 5.27295 16 5.27295C13.5 5.27295 12 6.99992 12 8.49992V10.9999H10C9.44772 10.9999 9 11.4476 9 11.9999V12.9999C9 13.5522 9.44771 13.9999 10 13.9999H12V21H4C3.44772 21 3 20.5523 3 20V4C3 3.44772 3.44772 3 4 3H20Z"/>
  <symbol id="myGithub">
    <path d="M4.0744 2.9938C4.13263 1.96371 4.37869 1.51577 5.08432 1.15606C5.84357 0.768899 7.04106 0.949072 8.45014 1.66261C9.05706 1.97009 9.11886 1.97635 10.1825 1.83998C11.5963 1.65865 13.4164 1.65929 14.7213 1.84164C15.7081 1.97954 15.7729 1.97265 16.3813 1.66453C18.3814 0.651679 19.9605 0.71795 20.5323 1.8387C20.8177 2.39812 20.8707 3.84971 20.6494 5.04695C20.5267 5.71069 20.5397 5.79356 20.8353 6.22912C22.915 9.29385 21.4165 14.2616 17.8528 16.1155C17.5801 16.2574 17.3503 16.3452 17.163 16.4167C16.5879 16.6363 16.4133 16.703 16.6247 17.7138C16.7265 18.2 16.8491 19.4088 16.8973 20.4002C16.9844 22.1922 16.9831 22.2047 16.6688 22.5703C16.241 23.0676 15.6244 23.076 15.2066 22.5902C14.9341 22.2734 14.9075 22.1238 14.9075 20.9015C14.9075 19.0952 14.7095 17.8946 14.2417 16.8658C13.6854 15.6415 14.0978 15.185 15.37 14.9114C17.1383 14.531 18.5194 13.4397 19.2892 11.8146C20.0211 10.2698 20.1314 8.13501 18.8082 6.83668C18.4319 6.3895 18.4057 5.98446 18.6744 4.76309C18.7748 4.3066 18.859 3.71768 18.8615 3.45425C18.8653 3.03823 18.8274 2.97541 18.5719 2.97541C18.4102 2.97541 17.7924 3.21062 17.1992 3.49805L16.2524 3.95695C16.1663 3.99866 16.07 4.0147 15.975 4.0038C13.5675 3.72746 11.2799 3.72319 8.86062 4.00488C8.76526 4.01598 8.66853 3.99994 8.58215 3.95802L7.63585 3.49882C7.04259 3.21087 6.42482 2.97541 6.26317 2.97541C5.88941 2.97541 5.88379 3.25135 6.22447 4.89078C6.43258 5.89203 6.57262 6.11513 5.97101 6.91572C5.06925 8.11576 4.844 9.60592 5.32757 11.1716C5.93704 13.1446 7.4295 14.4775 9.52773 14.9222C10.7926 15.1903 11.1232 15.5401 10.6402 16.9905C10.26 18.1319 10.0196 18.4261 9.46707 18.4261C8.72365 18.4261 8.25796 17.7821 8.51424 17.1082C8.62712 16.8112 8.59354 16.7795 7.89711 16.5255C5.77117 15.7504 4.14514 14.0131 3.40172 11.7223C2.82711 9.95184 3.07994 7.64739 4.00175 6.25453C4.31561 5.78028 4.32047 5.74006 4.174 4.83217C4.09113 4.31822 4.04631 3.49103 4.0744 2.9938Z"/>
    <path d="M3.33203 15.9454C3.02568 15.4859 2.40481 15.3617 1.94528 15.6681C1.48576 15.9744 1.36158 16.5953 1.66793 17.0548C1.8941 17.3941 2.16467 17.6728 2.39444 17.9025C2.4368 17.9449 2.47796 17.9858 2.51815 18.0257C2.71062 18.2169 2.88056 18.3857 3.05124 18.5861C3.42875 19.0292 3.80536 19.626 4.0194 20.6962C4.11474 21.1729 4.45739 21.4297 4.64725 21.5419C4.85315 21.6635 5.07812 21.7352 5.26325 21.7819C5.64196 21.8774 6.10169 21.927 6.53799 21.9559C7.01695 21.9877 7.53592 21.998 7.99999 22.0008C8.00033 22.5527 8.44791 23.0001 8.99998 23.0001C9.55227 23.0001 9.99998 22.5524 9.99998 22.0001V21.0001C9.99998 20.4478 9.55227 20.0001 8.99998 20.0001C8.90571 20.0001 8.80372 20.0004 8.69569 20.0008C8.10883 20.0026 7.34388 20.0049 6.67018 19.9603C6.34531 19.9388 6.07825 19.9083 5.88241 19.871C5.58083 18.6871 5.09362 17.8994 4.57373 17.2891C4.34391 17.0194 4.10593 16.7834 3.91236 16.5914C3.87612 16.5555 3.84144 16.5211 3.80865 16.4883C3.5853 16.265 3.4392 16.1062 3.33203 15.9454Z"/>
  </symbol>
  <symbol id="myLinkedin">
    <path d="M6.5 8C7.32843 8 8 7.32843 8 6.5C8 5.67157 7.32843 5 6.5 5C5.67157 5 5 5.67157 5 6.5C5 7.32843 5.67157 8 6.5 8Z"/>
    <path d="M5 10C5 9.44772 5.44772 9 6 9H7C7.55228 9 8 9.44771 8 10V18C8 18.5523 7.55228 19 7 19H6C5.44772 19 5 18.5523 5 18V10Z"/>
    <path d="M11 19H12C12.5523 19 13 18.5523 13 18V13.5C13 12 16 11 16 13V18.0004C16 18.5527 16.4477 19 17 19H18C18.5523 19 19 18.5523 19 18V12C19 10 17.5 9 15.5 9C13.5 9 13 10.5 13 10.5V10C13 9.44771 12.5523 9 12 9H11C10.4477 9 10 9.44772 10 10V18C10 18.5523 10.4477 19 11 19Z"/>
    <path fill-rule="evenodd" clip-rule="evenodd" d="M20 1C21.6569 1 23 2.34315 23 4V20C23 21.6569 21.6569 23 20 23H4C2.34315 23 1 21.6569 1 20V4C1 2.34315 2.34315 1 4 1H20ZM20 3C20.5523 3 21 3.44772 21 4V20C21 20.5523 20.5523 21 20 21H4C3.44772 21 3 20.5523 3 20V4C3 3.44772 3.44772 3 4 3H20Z"/>
  </symbol>
  <path id="mySignIn" stroke="currentColor" stroke-linecap="round" stroke-linejoin="round" stroke-width="2" d="M1 8h11m0 0L8 4m4 4-4 4m4-11h3a2 2 0 0 1 2 2v10a2 2 0 0 1-2 2h-3"/>
  <symbol id="mySignUp">
    <path d="M5 5V.13a2.96 2.96 0 0 0-1.293.749L.879 3.707A2.96 2.96 0 0 0 .13 5H5Z" />
    <path
      d="M6.737 11.061a2.961 2.961 0 0 1 .81-1.515l6.117-6.116A4.839 4.839 0 0 1 16 2.141V2a1.97 1.97 0 0 0-1.933-2H7v5a2 2 0 0 1-2 2H0v11a1.969 1.969 0 0 0 1.933 2h12.134A1.97 1.97 0 0 0 16 18v-3.093l-1.546 1.546c-.413.413-.94.695-1.513.81l-3.4.679a2.947 2.947 0 0 1-1.85-.227 2.96 2.96 0 0 1-1.635-3.257l.681-3.397Z"/>
    <path
      d="M8.961 16a.93.93 0 0 0 .189-.019l3.4-.679a.961.961 0 0 0 .49-.263l6.118-6.117a2.884 2.884 0 0 0-4.079-4.078l-6.117 6.117a.96.96 0 0 0-.263.491l-.679 3.4A.961.961 0 0 0 8.961 16Zm7.477-9.8a.958.958 0 0 1 .68-.281.961.961 0 0 1 .682 1.644l-.315.315-1.36-1.36.313-.318Zm-5.911 5.911 4.236-4.236 1.359 1.359-4.236 4.237-1.7.339.341-1.699Z"/>
  </symbol>
  <path id="myUpdateInfo" d="M14 2a3.963 3.963 0 0 0-1.4.267 6.439 6.439 0 0 1-1.331 6.638A4 4 0 1 0 14 2Zm1 9h-1.264A6.957 6.957 0 0 1 15 15v2a2.97 2.97 0 0 1-.184 1H19a1 1 0 0 0 1-1v-1a5.006 5.006 0 0 0-5-5ZM6.5 9a4.5 4.5 0 1 0 0-9 4.5 4.5 0 0 0 0 9ZM8 10H5a5.006 5.006 0 0 0-5 5v2a1 1 0 0 0 1 1h11a1 1 0 0 0 1-1v-2a5.006 5.006 0 0 0-5-5Z"/>
  <path id="myChangePassword" fill-rule="evenodd" d="M17.408 3.412a1.974 1.974 0 0 0 0-2.82 1.973 1.973 0 0 0-2.819 0l-.29.29-.59-.59a1.009 1.009 0 0 0-1.65.35l-.35-.35a1.004 1.004 0 1 0-1.42 1.42l.35.35a1.033 1.033 0 0 0-.58.58l-.35-.35a1.004 1.004 0 0 0-1.42 1.42L9.879 5.3l-3.02 3.01c-.01.01-.02.03-.03.04A4.885 4.885 0 0 0 5 8a5 5 0 1 0 5 5 4.885 4.885 0 0 0-.35-1.83c.01-.01.03-.02.04-.03l7.718-7.728zM5 15a2 2 0 1 1 0-4 2 2 0 0 1 0 4z"/>
  <symbol id="mySchool">
    <path d="M31,26c-0.6,0-1-0.4-1-1V12c0-0.6,0.4-1,1-1s1,0.4,1,1v13C32,25.6,31.6,26,31,26z"/>
    <path d="M16,21c-0.2,0-0.3,0-0.5-0.1l-15-8C0.2,12.7,0,12.4,0,12s0.2-0.7,0.5-0.9l15-8c0.3-0.2,0.6-0.2,0.9,0l15,8 c0.3,0.2,0.5,0.5,0.5,0.9s-0.2,0.7-0.5,0.9l-15,8C16.3,21,16.2,21,16,21z"/>
    <path d="M17.4,22.6C17,22.9,16.5,23,16,23s-1-0.1-1.4-0.4L6,18.1V22c0,3.1,4.9,6,10,6s10-2.9,10-6v-3.9L17.4,22.6z"/>
  </symbol>
  <symbol id="myClassroom">
    <path id="XMLID_134_" d="M473.725,5.656H213.576c-8.655,0-15.655,7.022-15.655,15.664v110.484l11.319-13.234
      c5.375-6.292,12.461-10.172,19.992-11.793V36.978h228.836v204.531H229.233v-34.238l-7.05,8.244
      c-6.161,7.189-14.858,11.65-24.262,12.529v29.124c0,8.642,7,15.655,15.655,15.655h84.489L255.141,467.7
      c-1.923,8.739,3.6,17.382,12.346,19.31c8.667,1.904,17.382-3.601,19.287-12.331l44.457-201.855h25.844l44.457,201.855
      c1.666,7.557,8.369,12.714,15.803,12.705c1.154,0,2.334-0.117,3.502-0.374c8.746-1.928,14.268-10.57,12.328-19.31l-42.92-194.877
      h83.481c8.647,0,15.655-7.013,15.655-15.655V21.32C489.38,12.678,482.372,5.656,473.725,5.656z"/>
    <path id="XMLID_132_" d="M349.368,97.116c-1.234-3.11-4.732-4.637-7.84-3.406l-92.234,32.555
      c-8.465-6.554-20.678-5.383-27.737,2.827l-29.267,34.178l-25.951-22.245c0.171,1.837,0.56,3.622,0.56,5.507v48.291l14.438,12.371
      c8.568,7.338,21.385,6.204,28.549-2.198l34.842-40.743l28.1-16.439l73.951-43.267C349.336,103.073,350.469,99.923,349.368,97.116z"
      />
    <path id="XMLID_131_" d="M109.928,105.776H92.547c-13.308,0-25.01,6.468-32.448,16.327l-53.352,49.12
      c-8.313,7.405-9.067,20.232-1.581,28.595l43.528,48.585c7.421,8.309,20.267,9.044,28.579,1.576
      c8.334-7.469,9.038-20.262,1.57-28.586l-30.003-33.504l42.616-38.134l-24.82,33.721l24.279,27.107
      c13.416,14.992,12.151,38.027-2.834,51.453c-10.231,9.172-24.193,11.324-36.297,7.094c0,0,0.188,93.659,0.188,193.962
      c0,13.416,10.874,24.291,24.291,24.291c13.403,0,24.291-10.875,24.291-24.291c0-100.272,0-43.051,0-144.771h16.203
      c0,101.646,0,44.468,0,144.771c0,7.004-1.953,13.49-5.067,19.231c4.076,3.135,9.148,5.06,14.676,5.06
      c13.424,0,24.298-10.875,24.298-24.291c0-100.272,0.031-58.237,0.031-316.561C150.697,124.022,132.45,105.776,109.928,105.776z"/>
    <path id="XMLID_130_" d="M79.592,91.198c6.495,3.376,13.787,5.471,21.62,5.471c7.853,0,15.145-2.095,21.659-5.477
      c15.204-7.877,25.684-23.559,25.684-41.862c0-26.146-21.196-47.335-47.344-47.335c-26.144,0-47.335,21.189-47.335,47.335
      C53.877,67.643,64.368,83.331,79.592,91.198z"/>
  </symbol>
  <symbol id="mySubject">
    <path class="st0" d="M480.077,132.02c-23.996-41.568-76.299-41.765-128.908-27.608C344.548,61.842,323.763,0,260.719,0
      c-47.99,0-74.289,45.078-88.348,97.686C132.215,82.225,68.165,69.275,36.641,123.98c-23.991,41.568,1.911,86.942,40.46,125.392
      c-33.529,27.011-76.701,76-45.176,130.608c23.996,41.568,76.299,41.765,128.804,27.608C167.454,450.156,188.233,512,251.283,512
      c47.986,0,74.289-45.176,88.343-97.784c40.26,15.559,104.206,28.411,135.73-26.196c23.996-41.471-1.906-86.843-40.455-125.294
      C468.43,235.617,511.596,186.627,480.077,132.02z M446.743,375.166c-20.882,36.04-70.573,24.892-101.396,13.549
      c6.828-35.736,8.936-72.284,8.936-98.382h-18.672c0,22.991-3.715,56.52-11.848,89.147c-2.107,8.334-4.515,16.569-7.225,24.598
      c-13.956,41.862-36.245,76.696-68.367,76.696c-41.662,0-56.922-48.588-62.447-80.911c34.436-11.952,67.064-28.412,89.652-41.559
      l-9.338-16.166c-19.877,11.44-50.798,25-83.122,34.235c-8.334,2.412-16.667,4.52-25.001,6.118
      c-43.167,8.844-84.426,7.03-100.49-20.882c-20.784-36.039,13.554-73.48,38.853-94.568c27.608,23.794,58.122,43.872,80.814,56.921
      l9.338-16.157c-19.878-11.45-47.089-31.529-71.279-55.019c-6.123-5.922-12.049-12.039-17.672-18.373
      c-29.314-33.029-48.289-69.667-32.226-97.578c20.785-36.04,70.476-24.892,101.3-13.549c-6.828,35.735-8.937,72.284-8.937,98.382
      h18.775c0-22.991,3.711-56.52,11.842-89.147c2.108-8.334,4.52-16.667,7.231-24.696c13.956-41.862,36.24-76.598,68.367-76.598
      c41.662,0,56.921,48.589,62.441,80.912c-34.43,11.95-67.161,28.412-89.75,41.559l9.436,16.166c19.78-11.44,50.701-25,83.128-34.235
      c8.23-2.412,16.564-4.52,24.897-6.118c43.27-8.844,84.529-7.03,100.593,20.882c20.779,36.039-13.554,73.48-38.853,94.568
      c-27.608-23.794-58.226-43.872-80.814-56.921l-9.338,16.156c19.775,11.452,47.084,31.53,71.177,55.02
      c6.225,5.921,12.146,12.148,17.769,18.47C443.832,310.617,462.807,347.254,446.743,375.166z"/>
    <path class="st0" d="M256.003,220.02c-19.868,0-35.975,16.098-35.975,35.97c0,19.872,16.108,35.98,35.975,35.98
      c19.864,0,35.971-16.108,35.971-35.98C291.974,236.117,275.867,220.02,256.003,220.02z"/>
  </symbol>
  <symbol id="myStudent">
    <path class="st0" d="M116.738,231.551c0,23.245,14.15,43.315,34.513,49.107c15.262,42.368,55.574,70.776,100.582,70.776
      s85.32-28.408,100.58-70.776c20.365-5.792,34.515-25.854,34.515-49.107c0-15.691-6.734-30.652-18.061-40.248l1.661-8.921
      c0-3.323-0.229-6.568-0.491-9.821l-0.212-2.593l-2.213,1.374c-30.871,19.146-80.885,27.71-116.754,27.71
      c-34.85,0-83.895-8.214-114.902-26.568l-2.259-0.59l-0.188,2.554c-0.192,2.632-0.384,5.256-0.357,8.23l1.632,8.649
      C123.466,200.923,116.738,215.876,116.738,231.551z"/>
    <path class="st0" d="M356.151,381.077c-9.635-5.97-18.734-11.607-26.102-17.43l-0.937-0.738l-0.972,0.691
      c-6.887,4.914-31.204,30.17-51.023,51.172l-10.945-21.273l5.697-4.076v-20.854h-40.07v20.854l5.697,4.076l-10.949,21.281
      c-19.825-21.009-44.154-46.265-51.034-51.18l-0.973-0.691l-0.937,0.738c-7.368,5.823-16.469,11.46-26.102,17.43
      c-30.029,18.61-64.062,39.697-64.062,77.344c0,22.244,52.241,53.579,168.388,53.579c116.146,0,168.388-31.335,168.388-53.579
      C420.213,420.774,386.178,399.687,356.151,381.077z"/>
    <path class="st0" d="M131.67,131.824c0,18.649,56.118,42.306,119.188,42.306s119.188-23.656,119.188-42.306v-25.706l43.503-17.702
      v55.962c-5.068,0.792-8.964,5.186-8.964,10.45c0,4.503,2.966,8.432,7.242,9.852l-8.653,57.111h40.704l-8.651-57.111
      c4.27-1.421,7.232-5.35,7.232-9.852c0-5.295-3.919-9.697-9.014-10.466l-0.21-67.197c0.357-0.621,0.357-1.266,0.357-1.607
      c0-0.342,0-0.978-0.149-0.978h-0.002c-0.262-2.446-2.011-4.612-4.56-5.652l-11.526-4.72L267.551,3.238
      C262.361,1.118,256.59,0,250.858,0s-11.502,1.118-16.69,3.238L72.834,68.936c-2.863,1.172-4.713,3.773-4.713,6.622
      c0,2.842,1.848,5.443,4.716,6.63l58.833,23.928V131.824z"/>
  </symbol>
  <symbol id="myScore">
		<path d="M7.965,4.084c-0.663,0-1.248,0.433-1.442,1.067L0.066,26.276c-0.14,0.456-0.055,0.952,0.229,1.336
			c0.285,0.385,0.734,0.61,1.212,0.61h2.475c0.678,0,1.272-0.451,1.453-1.104l1.414-5.104h6.913l1.541,5.139
			c0.191,0.639,0.778,1.074,1.444,1.074h2.707c0.479,0,0.93-0.229,1.214-0.611c0.284-0.389,0.368-0.885,0.227-1.344L14.342,5.145
			c-0.196-0.631-0.779-1.061-1.44-1.061H7.965z M7.636,17.914c0,0,1.406-5.354,2.147-8.2c0.049-0.189,0.218-0.321,0.413-0.323
			c0.195-0.002,0.367,0.126,0.42,0.313l2.358,8.21H7.636z"/>
		<path d="M26.996,8.374V4.366c0-0.51-0.413-0.923-0.924-0.923h-1.61c-0.51,0-0.923,0.413-0.923,0.923v4.008h-3.751
			c-0.511,0-0.923,0.413-0.923,0.923v1.483c0,0.51,0.412,0.923,0.923,0.923h3.751v4.007c0,0.51,0.413,0.922,0.923,0.922h1.61
			c0.511,0,0.924-0.413,0.924-0.922v-4.007h3.751c0.51,0,0.923-0.413,0.923-0.923V9.297c0-0.51-0.413-0.923-0.923-0.923H26.996z"/>
  </symbol>
</svg>